<svg version="1.2" xmlns="http://www.w3.org/2000/svg" viewBox="0 0 1024 1024" width="1024" height="1024">
	<style>
		.s0 { fill: #26275f } 
		.s1 { fill: #0897d8 } 
		.s2 { fill: #282a61 } 
		.s3 { fill: #089ada } 
		.s4 { fill: #0a9bdb } 
		.s5 { fill: #26285f } 
		.s6 { fill: #099bdb } 
		.s7 { fill: #ffffff } 
		.s8 { fill: #24275d } 
		.s9 { fill: #ababab } 
		.s10 { fill: #efefef } 
		.s11 { fill: #afafae } 
		.s12 { fill: #f9c919 } 
		.s13 { fill: #2a2c63 } 
		.s14 { fill: #facb0e } 
		.s15 { fill: #4e4f7b } 
		.s16 { fill: #f7d230 } 
		.s17 { fill: #adadad } 
		.s18 { fill: #b9d6de } 
		.s19 { fill: #3cadd3 } 
		.s20 { fill: #2f3467 } 
		.s21 { fill: #f7d450 } 
		.s22 { fill: #b5b5b6 } 
	</style>
	<path class="s0" d="m463.9 435.07q0 0.75 0 1.52-1.51 0.2-3.07 0.41c-63.77 8.75-127.77 26.68-174.91 72.61q-1.46 1.29-2.96 2.62c-21.86 19.88-33.93 49.69-39.64 78q-0.51 2.35-1.04 4.77c-2.29 12.61-2.31 25.23-2.38 38.02-0.02 2.69-0.02 2.69-0.04 5.44 0.03 10.18 0.82 19.78 2.81 29.78 0.65 4.14 0.65 4.14 0.65 13.27-14.55 0-29.11 0-44.11 0 0-14.06 0-28.12 0-42.6-30.12 0.5-60.24 1.01-91.28 1.52-9.7 20.3-9.7 20.3-18.25 41.08-16.06 0-32.13 0-48.68 0 2.63-7.9 5.5-14.23 9.51-21.4q0.98-1.75 1.99-3.57c15.6-27.42 33.87-53.28 55.26-76.49 3.2-3.49 6.3-7.06 9.4-10.64 4.57-5.13 9.31-9.75 14.56-14.18q4.14-3.5 8.19-7.11c22.43-19.83 47.05-35.82 72.99-50.68 1.61-0.94 1.61-0.94 3.25-1.89 27.48-15.76 57.73-27.05 88.02-36.14q2.05-0.63 4.16-1.27c49.02-14.68 104.28-25.22 155.57-23.07z"/>
	<path class="s1" d="m392.4 346.83q2.27 0.6 4.6 1.22c7.51 2.06 7.51 2.06 10.62 3.35q0.75 1.5 1.52 3.04c-2.51 0.11-2.51 0.11-5.07 0.23-12.72 0.62-25.05 1.56-37.53 4.33 14.08 15.5 46.51 26.43 67.32 27.68q5.52 0.19 11.04 0.37c29.13 0.99 29.13 0.99 41.39 13.49 4.37 5.12 6.28 9.56 6.52 16.27-3.65 6.17-6.97 8.55-13.7 10.65-4.09 0.39-8.07 0.63-12.18 0.75q-3.71 0.14-7.42 0.29c-1.94 0.07-1.94 0.07-3.93 0.14-43.9 1.64-87.16 6.07-130.11 15.55q-1.92 0.41-3.89 0.84c-35.25 7.67-70.3 19.62-102.6 35.67q-1.93 0.95-3.93 1.93c-31.57 15.6-60.93 34.77-86.83 58.71q-3.47 3.18-7.05 6.23c-8.04 6.82-14.59 14.23-21.07 22.55-2.81 3.38-2.81 3.38-5.86 4.9 15.37-33.91 46.99-64.16 76.38-86.17q4.02-3.05 7.97-6.19c14.73-11.42 30.62-20.23 47.13-28.82q5.11-2.67 10.18-5.42c27.76-14.73 57.93-23.97 88.15-32.2 2.92-0.67 2.92-0.67 4.46-2.45q-2.51-0.94-5.1-1.91c-15.46-5.93-30.57-12.49-45.51-19.62q-2.88-1.37-5.77-2.72c-23.65-11.13-23.65-11.13-31.85-19.87q0-2.24 0-4.56c23.55-7.94 47.22-14.45 71.5-19.78q2.66-0.61 5.41-1.24c23.94-4.64 51.82-4.26 75.21 2.76z"/>
	<path class="s2" d="m320.91 502c10.85-0.12 21.71-0.25 32.89-0.38 3.38-0.06 6.76-0.11 10.25-0.17 19.59-0.18 40.46-0.31 56.32 13.06 10.91 11.99 12.43 25.09 12.1 40.64-0.7 12.63-7.34 21.48-16.11 30.1-2.91 2.13-5.22 2.84-8.74 3.46q2.39 3.6 4.79 7.19 2.06 3.09 4.12 6.19 4.97 7.48 10.02 14.91c1.64 2.42 1.64 2.42 3.31 4.89q1.49 2.17 3.01 4.41c2.13 3.48 2.13 3.48 2.13 6.53-8.09 0.63-16.16 0.99-24.28 0.82q-1.99-0.04-4.03-0.08c-4.59-0.94-6.33-2.65-9.34-6.16-1.72-3.72-1.72-3.72-3.42-8.27-4.96-12.7-4.96-12.7-13.7-22.82-9.99-3.26-20-2.01-30.42-1.52 0 12.55 0 25.1 0 38.03-9.54 0-19.08 0-28.9 0 0-43.18 0-86.35 0-130.83z"/>
	<path class="s3" d="m667.75 502c25.86 0 25.86 0 32.51 5.3 2.42 3.43 2.42 3.43 4.66 7.16q1.29 1.87 2.61 3.81 2.6 3.78 5.09 7.63c3 4.58 6.3 8.8 9.7 13.09q3.9 5.08 7.8 10.17 1.47 1.92 2.99 3.9 5.02 6.56 10.03 13.12 1.63 2.12 3.3 4.3 1.52 1.99 3.08 4.03 1.36 1.79 2.77 3.63c2.17 2.96 2.17 2.96 3.69 6.01 0.5-27.11 1-54.22 1.52-82.15 9.04 0 18.07 0 27.38 0 0 43.17 0 86.35 0 130.83-25.86 0-25.86 0-32.12-4.91-2.19-3.21-2.19-3.21-4.2-6.69q-2.38-3.59-4.77-7.18c-1.14-1.8-1.14-1.8-2.3-3.63-3.29-5.06-7.01-9.7-10.8-14.39q-2.04-2.58-4.07-5.16-2.06-2.6-4.11-5.2-4.42-5.61-8.84-11.22-0.98-1.24-1.99-2.52c-5.12-6.5-10.06-13.1-15.03-19.73-0.5 26.11-1 52.21-1.52 79.11-9.04 0-18.07 0-27.38 0 0-42.68 0-85.35 0-129.31z"/>
	<path class="s4" d="m878.59 536.48c12.99 7.21 20.28 16.91 24.95 30.93 0 8.54 0 17.07 0 25.86-23.6 0-47.19 0-71.5 0 4.41 8.82 5.66 10.7 13.69 15.22 8.05 2.68 16.05 3.02 24-0.18q3.92-2.04 7.75-4.24c3.24-1.67 3.24-1.67 7.8-1.67 3.11 2.66 3.11 2.66 6.37 6.09 1.64 1.69 1.64 1.69 3.3 3.42q1.23 1.31 2.5 2.66c-7.01 10.52-18.14 16.6-30.46 19.24-17.7 2.09-32.23 0.13-46.93-10.49-6.15-5.13-10.38-10.7-13.88-17.88-0.83-1.6-0.83-1.6-1.68-3.25-3.99-12.72-3.92-31.51 1.77-43.62 15.49-24.57 45.59-33.46 72.32-22.09z"/>
	<path class="s5" d="m495.47 533.47q2.16-0.06 4.38-0.13c12.09-0.11 21.21 2.52 30.7 10.11 8.53 10.73 10.29 19.62 10.01 33.19q-0.01 2.34-0.03 4.75-0.06 7.47-0.19 14.93-0.04 5.08-0.08 10.16-0.1 12.42-0.3 24.83c-8.53 0-17.06 0-25.86 0-0.75-4.52-0.75-4.52-1.52-9.13q-2.01 1.78-4.09 3.61c-8.15 7.21-16.37 7.63-26.81 7.7q-1.85 0.08-3.76 0.15c-9.56 0.09-15.73-2.41-23.15-8.42-7.71-8.33-9.96-14.89-9.68-26.13 0.89-6.91 3.17-11.6 8.16-16.46 9.24-5.9 17.89-9.33 28.88-9.28q2.64 0.01 5.36 0.01 2.76 0.02 5.6 0.04 2.79 0.01 5.66 0.02 6.91 0.03 13.83 0.08c-1.12-4.78-2.41-9.27-4.56-13.69-8.64-4.75-19.31-4.01-28.91-3.05-4.26 1.3-8.12 2.84-12.13 4.76-3.08 1.33-3.08 1.33-7.64 1.33q-1.6-3.6-3.14-7.23-0.87-2-1.76-4.06c-1.29-4.27-1.74-6.06 0.33-10.01 3.55-1.87 3.55-1.87 7.99-3.33q2.17-0.73 4.4-1.49c9.52-2.77 18.45-3.16 28.31-3.26z"/>
	<path class="s6" d="m924.84 508.09c9.03 0 18.07 0 27.38 0 0 9.03 0 18.07 0 27.38 9.03 0 18.07 0 27.38 0 0 7.03 0 14.05 0 21.29-9.04 0-18.07 0-27.38 0q0.16 9.22 0.4 18.44 0.07 3.13 0.12 6.26 0.09 4.51 0.22 9.03 0.06 2.7 0.12 5.48c0.72 5.34 1.87 8.32 5.22 12.52 6.8 0.77 13.09-0.22 19.78-1.52q1.21 3.22 2.38 6.46 0.65 1.79 1.33 3.64c0.95 3.99 0.95 5.92-0.67 9.67-10.32 6.82-19.55 9.13-31.94 7.61-10.12-3.13-16.46-7.64-21.55-16.94-2.96-6.58-2.99-12.42-2.94-19.49q0-1.76 0-3.57 0.02-5.62 0.05-11.25 0.01-3.82 0.02-7.63 0.03-9.35 0.08-18.71c-5.02 0-10.04 0-15.22 0 0-7.02 0-14.05 0-21.29 5.02 0 10.04 0 15.22 0 0-9.04 0-18.07 0-27.38z"/>
	<path class="s7" d="m111.95 638c2.42 0.03 2.42 0.03 4.88 0.05q2.73 0 5.54 0 2.94 0.06 5.98 0.12 3.06 0.02 6.12 0.03 8.04 0.06 16.09 0.19 8.21 0.11 16.43 0.15c10.74 0.08 21.48 0.23 32.22 0.37 0 14.06 0 28.12 0 42.6 14.56 0 29.11 0 44.11 0q0.75-2.25 1.53-4.56 0 2.99 0 6.08c-67.27 0-134.54 0-203.85 0q0-0.75 0-1.52c16.06 0 32.13 0 48.68 0 0.5-2.51 1-5.02 1.52-7.61q1.23-3.27 2.65-6.46 0.78-1.76 1.59-3.57 0.81-1.8 1.66-3.66c0.8-1.81 0.8-1.81 1.62-3.66 1.51-3.37 3.01-6.72 4.65-10.03q0.9-1.95 1.83-3.95c2.73-3.66 2.73-3.66 6.75-4.57z"/>
	<path class="s8" d="m614.5 495.92c9.04 0 18.08 0 27.39 0 0 44.67 0 89.35 0 135.39-9.04 0-18.08 0-27.39 0 0-44.68 0-89.36 0-135.39z"/>
	<path class="s9" d="m292.57 407.68q1.67 0.87 3.4 1.76 4.11 2.15 8.2 4.33 0 0.75 0 1.52-2.77 0.62-5.63 1.25-10.61 2.36-21.21 4.75-4.54 1.02-9.08 2.02c-26.22 5.82-51.96 12.78-77.58 20.82q-5.87 1.81-11.78 3.5c-27.93 8.1-55.47 17.58-81.99 29.58-8.26 3.65-8.26 3.65-13.31 1.97 54.37-30.94 110.11-55.7 170.38-73.02 2.24-0.66 2.24-0.66 4.52-1.34 13.87-4 21.38-3.94 34.08 2.86z"/>
	<path class="s7" d="m156.36 570.09q1.69 0.01 3.42 0.02c1.92 0 1.92 0 3.88 0 2.07 0.02 2.07 0.02 4.18 0.05q2.11 0.01 4.29 0.01 6.79 0.03 13.58 0.1 4.59 0.02 9.19 0.04 11.28 0.05 22.56 0.15-1.06 3.98-2.12 7.95-0.59 2.21-1.2 4.48c-1.07 3.72-2.29 7.26-3.71 10.86-2.47 6.07-2.47 6.07-3.62 14.74-26.6 0-53.21 0-80.62 0 12.03-18.91 12.03-18.91 17.97-26.72q1.7-2.25 3.45-4.57c5.24-6.65 5.24-6.65 8.75-7.11z"/>
	<path class="s5" d="m562.78 533.95c9.04 0 18.07 0 27.38 0 0 32.12 0 64.25 0 97.36-9.03 0-18.07 0-27.38 0 0-32.13 0-64.26 0-97.36z"/>
	<path class="s7" d="m349.81 526.34c8.28-0.14 8.28-0.14 16.73-0.28q2.56-0.07 5.2-0.13c9.53-0.08 16.62 0.8 25.23 4.97 6.83 7.19 8.25 12.21 8.12 21.9-0.81 6.22-3.3 10.62-8.12 14.61-9.62 5.57-18.68 5.1-29.57 4.85-8.71-0.14-8.71-0.14-17.59-0.28 0-15.06 0-30.12 0-45.64z"/>
	<path class="s10" d="m967 944q0.99 0 2 0c0.51 1.18 0.51 1.18 1.03 2.38 5.02 10.88 10.76 16.44 21.97 20.62q0 0.99 0 2-1.17 0.51-2.38 1.03c-10.88 5.02-16.44 10.76-20.62 21.97q-0.99 0-2 0-0.51-1.17-1.03-2.38c-5.02-10.88-10.76-16.44-21.97-20.62q0-0.99 0-2 1.17-0.51 2.38-1.03c10.88-5.02 16.44-10.76 20.62-21.97z"/>
	<path class="s7" d="m249.41 521.78q0 1.5 0 3.04-2.62 2.56-5.33 5.02c-2.49 2.59-2.49 2.59-4.08 6.33-2.49 4.86-4.64 7.94-8.85 11.47-9.15 1.93-17.99 1.44-27.28 0.95q-3.78-0.12-7.55-0.21-9.21-0.26-18.41-0.74 0.86-1.01 1.75-2.04 1.17-1.36 2.38-2.77 1.26-1.45 2.55-2.95c2-2.36 3.9-4.8 5.78-7.26 15.28-16.53 38.38-12.17 59.04-10.84z"/>
	<path class="s11" d="m238.76 380.3q1.68 0.92 3.41 1.86c1.56 0.96 1.56 0.96 3.15 1.95q1.58 0.96 3.22 1.94 1.17 0.92 2.39 1.86 0 1.5 0 3.04c-2.28 0.34-2.28 0.34-4.6 0.68-29.03 4.46-57.6 11.07-85.55 20.07-8.92 2.85-17.77 4.99-26.98 6.63 6.74-6.05 14.2-9.6 22.34-13.4q2.11-1 4.29-2.02c18.5-8.59 37.3-15.79 56.75-21.94q1.91-0.63 3.88-1.28c6.93-2.1 11.15-3.29 17.7 0.61z"/>
	<path class="s12" d="m421.31 359c9.59 2.82 17.76 7.97 25.86 13.7q2.11 1.42 4.28 2.88c3.42 2.44 3.42 2.44 7.89 6.24q0 0.75 0 1.52c-28.88 1.01-56.04-5.43-80.63-21.29 10.94-7.29 30.01-4.76 42.6-3.05z"/>
	<path class="s13" d="m581.04 491.35c4.8 1.81 8.03 3.17 11.22 7.23 1.65 5.95 1.65 11.54 0 17.49-4.38 5.58-9.81 7.05-16.64 7.89-6.13-0.78-8.52-2.43-12.84-6.75-2.85-5.7-2.53-12.06-1.52-18.25 4.63-7.48 11.47-8.79 19.78-7.61z"/>
	<path class="s7" d="m489.11 590.08q2.03 0.01 4.13 0.02c2.14 0.02 2.14 0.02 4.32 0.04q2.14 0.01 4.36 0.02 5.33 0.02 10.66 0.07c0.31 11.64 0.31 11.64-2.47 16.45-7.5 6.91-14.25 8.86-24.28 8.52-6.31-1.08-8.73-3.3-12.8-8.23-0.95-4.66-0.95-4.66 0-9.13 4.95-6.11 8.38-7.81 16.08-7.76z"/>
	<path class="s7" d="m863.99 555.24c7.66 3.44 10.7 7.42 13.69 15.22q0 2.24 0 4.56c-15.56 0-31.13 0-47.16 0 1.72-8.59 1.72-8.59 5.99-13.31q1.19-1.35 2.42-2.73c6.38-6.31 16.75-4.45 25.06-3.74z"/>
	<path class="s14" d="m203.77 345.31c18.07 0 36.15 0 54.77 0-2.53 5.06-8.1 6.5-13.03 8.85-6.94 3.36-13.66 6.69-20.06 11.02-4.94 2.95-4.94 2.95-7.94 2.89-4.58-2.16-6.17-5.36-8.79-9.64q-1.4-2.21-2.83-4.5c-2.12-4.05-2.12-4.05-2.12-8.62z"/>
	<path class="s7" d="m285.92 489.83c-17.14 17.31-17.14 17.31-28.77 17.77q-4.68-0.1-9.36-0.37-2.4-0.07-4.87-0.15-5.89-0.18-11.77-0.52c16.1-17.2 32.66-18.2 54.77-16.73z"/>
	<path class="s7" d="m400.01 371.17q3.11 1.13 6.23 2.24 5.05 1.82 10.08 3.66c6.22 2.23 12.09 3.91 18.68 4.75q-1.5 1.5-3.04 3.05 1.49 1.49 3.04 3.04c-18.59-2.38-35.05-8.42-51.72-16.74q0-0.74 0-1.52c6.7-1.97 10.26-0.82 16.73 1.52z"/>
	<path class="s7" d="m323.95 468.53c-2.51 5.02-6.98 6.63-11.89 9.07-9.05 2.96-18.24 2.15-27.66 1.58 10.01-10.01 26.09-11.86 39.55-10.65z"/>
	<path class="s7" d="m390.03 355.77c1.67 0.02 1.67 0.02 3.37 0.04q4.07 0.06 8.13 0.15-0.75 1.5-1.52 3.04c-3.7 0.58-3.7 0.58-8.27 0.86-5.98 0.26-5.98 0.26-11.51 2.19 5.28 3.01 5.28 3.01 10.65 6.08q0 0.75 0 1.52c-10.03 1.07-15.96-2.28-24.34-7.6q0-1.5 0-3.05c8.09-2.69 15-3.43 23.49-3.23z"/>
	<path class="s7" d="m107.93 638.91c30.12 0 60.24 0 91.28 0q0 0.75 0 1.52-1.6 0.02-3.24 0.03-15.14 0.13-30.28 0.33-7.79 0.11-15.57 0.17-8.96 0.08-17.91 0.22-2.77 0.01-5.63 0.02-2.59 0.05-5.26 0.1-2.27 0.02-4.62 0.05c-4.85 0.7-7.8 2.4-11.81 5.17 1.01-2.51 2.01-5.02 3.04-7.61z"/>
	<path class="s15" d="m463.9 435.07q0 0.75 0 1.52c-14.05 2.01-28.11 4.01-42.59 6.08q0-1.5 0-3.04c-2.51 0-5.02 0-7.61 0q0-0.75 0-1.52c16.84-2.34 33.2-3.46 50.2-3.04z"/>
	<path class="s16" d="m203.77 345.31c18.07 0 36.15 0 54.77 0-3.05 3.05-3.05 3.05-7.67 3.32-2.91-0.07-2.91-0.07-5.88-0.14q-3.19-0.04-6.38-0.09-5.03-0.1-10.06-0.22-4.86-0.1-9.71-0.16-2.89-0.07-5.88-0.13-2.28 0.23-4.62 0.47c-1.51 2.26-1.51 2.26-3.05 4.56-0.5-2.51-1-5.02-1.52-7.61z"/>
	<path class="s17" d="m110.98 465.49q0 1.5 0 3.04 1.5 0.75 3.04 1.52-6.31 2.74-12.65 5.42c-1.79 0.79-1.79 0.79-3.62 1.58q-1.72 0.73-3.49 1.47-1.58 0.68-3.21 1.38c-2.89 0.8-2.89 0.8-7.46-0.72q5.99-3.43 11.98-6.84 1.7-0.98 3.44-1.98 1.63-0.92 3.3-1.87 1.5-0.86 3.04-1.74c2.58-1.26 2.58-1.26 5.63-1.26z"/>
	<path class="s18" d="m695.13 550.68c1.51 1.51 3.01 3.01 4.56 4.56q-0.75 0.75-1.52 1.52-0.34 3.4-0.48 6.81-0.09 2.04-0.19 4.14-0.09 2.15-0.18 4.36-0.1 2.16-0.2 4.38-0.25 5.37-0.47 10.74-0.75 0-1.52 0c0-12.05 0-24.1 0-36.51z"/>
	<path class="s19" d="m106.41 555.24q1.5 2.25 3.05 4.57c-4.52 5.02-9.04 10.04-13.7 15.21 0-5.84 1.93-7.78 5.33-12.46q1.47-2.04 2.99-4.15 1.15-1.56 2.33-3.17z"/>
	<path class="s20" d="m88.16 603.92q1.5 0 3.04 0c-2.32 5.23-5.33 9.42-9.13 13.69q-1.5 0-3.04 0c2.32-5.23 5.33-9.41 9.13-13.69z"/>
	<path class="s21" d="m389.65 358.91c2.87 0.05 2.87 0.05 5.8 0.09-3.02 1.51-3.02 1.51-6.09 3.05q0 2.24 0 4.56-4.61-1.38-9.13-3.04-0.74-1.5-1.52-3.04c4.19-1.4 6.64-1.69 10.94-1.62z"/>
	<path class="s7" d="m218.98 523.3c9.54 0 19.08 0 28.91 0-1.51 1.5-3.01 3.01-4.57 4.56q-0.75-0.75-1.52-1.52c-3.84-0.36-7.65-0.64-11.5-0.86q-1.62-0.09-3.28-0.19-4.02-0.25-8.04-0.47 0-0.75 0-1.52z"/>
	<path class="s7" d="m107.93 638.91c6.53 0 13.06 0 19.78 0q0 0.75 0 1.52-1.51 0.09-3.06 0.17c-7.7 0.58-13.43 1.07-19.76 5.92 1.01-2.51 2.01-5.02 3.04-7.61z"/>
	<path class="s7" d="m403.05 375.74c7.52-0.51 8.8-0.25 15.22 4.56-5.02 0-10.04 0-15.22 0q0-2.25 0-4.56z"/>
	<path id="Layer copy 4" class="s7" d="m399 355.15c6.26-0.42 7.34-0.2 12.68 3.81-4.18 0-8.37 0-12.68 0q0-1.88 0-3.81z"/>
	<path id="Layer copy 5" class="s7" d="m405 355.17c6.74-0.46 7.9-0.22 13.65 4.09-4.51 0-9.01 0-13.65 0q0-2.02 0-4.09z"/>
	<path id="Layer copy" class="s7" d="m431.05 382.22c8.38-0.57 9.81-0.28 16.95 5.08-5.59 0-11.18 0-16.95 0q0-2.5 0-5.08z"/>
	<path id="Layer copy 2" class="s7" d="m441.05 382.22c8.38-0.57 9.81-0.28 16.95 5.08-5.59 0-11.18 0-16.95 0q0-2.5 0-5.08z"/>
	<path id="Layer copy 3" class="s7" d="m451.25 381.64c9.44-0.04 11.03 0.4 18.67 6.92-6.28-0.4-12.56-0.79-19.04-1.2q0.18-2.82 0.37-5.72z"/>
	<path class="s22" d="m97.29 471.58q2.24 1.49 4.56 3.04-3.27 1.59-6.56 3.14c-1.83 0.87-1.83 0.87-3.69 1.76-3.44 1.18-3.44 1.18-8.01-0.34 4.52-2.51 9.04-5.02 13.7-7.6z"/>
	<path class="s7" d="m381.76 363.57c7.41 2.66 7.41 2.66 9.12 6.08-5.13 0.19-5.13 0.19-10.65 0q-1.49-1.49-3.04-3.04 2.25 0 4.57 0 0-1.5 0-3.04z"/>
</svg>